<mxfile host="app.diagrams.net" modified="2021-07-25T06:12:52.356Z" agent="5.0 (Windows NT 10.0; Win64; x64) AppleWebKit/537.36 (KHTML, like Gecko) Chrome/92.0.4515.107 Safari/537.36" etag="UkXhld0tLf5_nTL1gs5H" version="14.9.2" type="github">
  <diagram id="prtHgNgQTEPvFCAcTncT" name="Page-1">
    <mxGraphModel dx="2276" dy="627" grid="1" gridSize="10" guides="1" tooltips="1" connect="1" arrows="1" fold="1" page="1" pageScale="1" pageWidth="827" pageHeight="1169" math="0" shadow="0">
      <root>
        <mxCell id="0" />
        <mxCell id="1" parent="0" />
        <mxCell id="JCrbDouMTUXb1XQhW-dl-3" value="db_1" style="shape=datastore;whiteSpace=wrap;html=1;fillColor=#67AB9F;" parent="1" vertex="1">
          <mxGeometry x="160" y="576" width="60" height="60" as="geometry" />
        </mxCell>
        <mxCell id="JCrbDouMTUXb1XQhW-dl-13" style="edgeStyle=none;rounded=0;orthogonalLoop=1;jettySize=auto;html=1;entryX=0.9;entryY=0.2;entryDx=0;entryDy=0;entryPerimeter=0;" parent="1" target="JCrbDouMTUXb1XQhW-dl-7" edge="1">
          <mxGeometry relative="1" as="geometry">
            <mxPoint x="370" y="120" as="sourcePoint" />
          </mxGeometry>
        </mxCell>
        <mxCell id="JCrbDouMTUXb1XQhW-dl-14" style="edgeStyle=none;rounded=0;orthogonalLoop=1;jettySize=auto;html=1;entryX=0.5;entryY=0;entryDx=0;entryDy=0;entryPerimeter=0;" parent="1" edge="1">
          <mxGeometry relative="1" as="geometry">
            <mxPoint x="400" y="130" as="sourcePoint" />
            <mxPoint x="404.9999999999998" y="188" as="targetPoint" />
          </mxGeometry>
        </mxCell>
        <mxCell id="JCrbDouMTUXb1XQhW-dl-5" value="&lt;br&gt;&lt;br&gt;&lt;br&gt;&lt;br&gt;accountadmin" style="html=1;dashed=0;whitespace=wrap;fillColor=#2875E2;strokeColor=#ffffff;points=[[0.005,0.63,0],[0.1,0.2,0],[0.9,0.2,0],[0.5,0,0],[0.995,0.63,0],[0.72,0.99,0],[0.5,1,0],[0.28,0.99,0]];shape=mxgraph.kubernetes.icon;prIcon=c_role" parent="1" vertex="1">
          <mxGeometry x="370" y="60" width="50" height="48" as="geometry" />
        </mxCell>
        <mxCell id="JCrbDouMTUXb1XQhW-dl-10" style="rounded=0;orthogonalLoop=1;jettySize=auto;html=1;entryX=0.9;entryY=0.2;entryDx=0;entryDy=0;entryPerimeter=0;" parent="1" target="JCrbDouMTUXb1XQhW-dl-8" edge="1">
          <mxGeometry relative="1" as="geometry">
            <mxPoint x="280" y="200" as="sourcePoint" />
          </mxGeometry>
        </mxCell>
        <mxCell id="JCrbDouMTUXb1XQhW-dl-7" value="&lt;br&gt;&lt;br&gt;&lt;br&gt;&lt;br&gt;securityadmin" style="html=1;dashed=0;whitespace=wrap;fillColor=#2875E2;strokeColor=#ffffff;points=[[0.005,0.63,0],[0.1,0.2,0],[0.9,0.2,0],[0.5,0,0],[0.995,0.63,0],[0.72,0.99,0],[0.5,1,0],[0.28,0.99,0]];shape=mxgraph.kubernetes.icon;prIcon=c_role" parent="1" vertex="1">
          <mxGeometry x="290" y="140" width="50" height="48" as="geometry" />
        </mxCell>
        <mxCell id="JCrbDouMTUXb1XQhW-dl-12" style="edgeStyle=none;rounded=0;orthogonalLoop=1;jettySize=auto;html=1;entryX=0.9;entryY=0.2;entryDx=0;entryDy=0;entryPerimeter=0;" parent="1" target="JCrbDouMTUXb1XQhW-dl-9" edge="1">
          <mxGeometry relative="1" as="geometry">
            <mxPoint x="190" y="280" as="sourcePoint" />
          </mxGeometry>
        </mxCell>
        <mxCell id="JCrbDouMTUXb1XQhW-dl-8" value="&lt;br&gt;&lt;br&gt;&lt;br&gt;&lt;br&gt;useradmin" style="html=1;dashed=0;whitespace=wrap;fillColor=#2875E2;strokeColor=#ffffff;points=[[0.005,0.63,0],[0.1,0.2,0],[0.9,0.2,0],[0.5,0,0],[0.995,0.63,0],[0.72,0.99,0],[0.5,1,0],[0.28,0.99,0]];shape=mxgraph.kubernetes.icon;prIcon=c_role" parent="1" vertex="1">
          <mxGeometry x="200" y="220" width="50" height="48" as="geometry" />
        </mxCell>
        <mxCell id="JCrbDouMTUXb1XQhW-dl-9" value="&lt;br&gt;&lt;br&gt;&lt;br&gt;&lt;br&gt;public" style="html=1;dashed=0;whitespace=wrap;fillColor=#2875E2;strokeColor=#ffffff;points=[[0.005,0.63,0],[0.1,0.2,0],[0.9,0.2,0],[0.5,0,0],[0.995,0.63,0],[0.72,0.99,0],[0.5,1,0],[0.28,0.99,0]];shape=mxgraph.kubernetes.icon;prIcon=c_role" parent="1" vertex="1">
          <mxGeometry x="110" y="300" width="50" height="48" as="geometry" />
        </mxCell>
        <mxCell id="JCrbDouMTUXb1XQhW-dl-15" value="&lt;font style=&quot;font-size: 14px&quot;&gt;&lt;b&gt;Snowflake Access Control Best Practices&lt;/b&gt;&lt;/font&gt;" style="text;html=1;resizable=0;autosize=1;align=center;verticalAlign=middle;points=[];fillColor=none;strokeColor=none;rounded=0;" parent="1" vertex="1">
          <mxGeometry x="15" y="30" width="290" height="20" as="geometry" />
        </mxCell>
        <mxCell id="JCrbDouMTUXb1XQhW-dl-29" style="edgeStyle=none;rounded=0;orthogonalLoop=1;jettySize=auto;html=1;entryX=0.5;entryY=0;entryDx=0;entryDy=0;entryPerimeter=0;" parent="1" target="JCrbDouMTUXb1XQhW-dl-18" edge="1">
          <mxGeometry relative="1" as="geometry">
            <mxPoint x="394" y="260" as="sourcePoint" />
          </mxGeometry>
        </mxCell>
        <mxCell id="JCrbDouMTUXb1XQhW-dl-30" style="edgeStyle=none;rounded=0;orthogonalLoop=1;jettySize=auto;html=1;entryX=0.5;entryY=0;entryDx=0;entryDy=0;entryPerimeter=0;" parent="1" target="JCrbDouMTUXb1XQhW-dl-24" edge="1">
          <mxGeometry relative="1" as="geometry">
            <mxPoint x="420" y="260" as="sourcePoint" />
          </mxGeometry>
        </mxCell>
        <mxCell id="JCrbDouMTUXb1XQhW-dl-43" style="edgeStyle=none;rounded=0;orthogonalLoop=1;jettySize=auto;html=1;exitX=0.995;exitY=0.63;exitDx=0;exitDy=0;exitPerimeter=0;" parent="1" source="JCrbDouMTUXb1XQhW-dl-17" edge="1">
          <mxGeometry relative="1" as="geometry">
            <mxPoint x="559.9999999999998" y="280.0000000000001" as="targetPoint" />
          </mxGeometry>
        </mxCell>
        <mxCell id="JCrbDouMTUXb1XQhW-dl-17" value="&lt;br&gt;&lt;br&gt;&lt;br&gt;&lt;br&gt;sysadmin" style="html=1;dashed=0;whitespace=wrap;fillColor=#2875E2;strokeColor=#ffffff;points=[[0.005,0.63,0],[0.1,0.2,0],[0.9,0.2,0],[0.5,0,0],[0.995,0.63,0],[0.72,0.99,0],[0.5,1,0],[0.28,0.99,0]];shape=mxgraph.kubernetes.icon;prIcon=c_role" parent="1" vertex="1">
          <mxGeometry x="380" y="200" width="50" height="48" as="geometry" />
        </mxCell>
        <mxCell id="JCrbDouMTUXb1XQhW-dl-19" value="" style="edgeStyle=none;rounded=0;orthogonalLoop=1;jettySize=auto;html=1;" parent="1" target="JCrbDouMTUXb1XQhW-dl-3" edge="1">
          <mxGeometry relative="1" as="geometry">
            <mxPoint x="190" y="516" as="sourcePoint" />
          </mxGeometry>
        </mxCell>
        <mxCell id="JCrbDouMTUXb1XQhW-dl-58" style="edgeStyle=none;rounded=0;orthogonalLoop=1;jettySize=auto;html=1;" parent="1" target="JCrbDouMTUXb1XQhW-dl-31" edge="1">
          <mxGeometry relative="1" as="geometry">
            <mxPoint x="220" y="476" as="sourcePoint" />
          </mxGeometry>
        </mxCell>
        <mxCell id="JCrbDouMTUXb1XQhW-dl-18" value="&lt;br&gt;&lt;br&gt;&lt;br&gt;&lt;br&gt;owner_db_1" style="html=1;dashed=0;whitespace=wrap;fillColor=#67AB9F;strokeColor=#ffffff;points=[[0.005,0.63,0],[0.1,0.2,0],[0.9,0.2,0],[0.5,0,0],[0.995,0.63,0],[0.72,0.99,0],[0.5,1,0],[0.28,0.99,0]];shape=mxgraph.kubernetes.icon;prIcon=c_role" parent="1" vertex="1">
          <mxGeometry x="165" y="446" width="50" height="48" as="geometry" />
        </mxCell>
        <mxCell id="JCrbDouMTUXb1XQhW-dl-21" value="db_2" style="shape=datastore;whiteSpace=wrap;html=1;fillColor=#67AB9F;" parent="1" vertex="1">
          <mxGeometry x="700" y="576" width="60" height="60" as="geometry" />
        </mxCell>
        <mxCell id="JCrbDouMTUXb1XQhW-dl-22" value="" style="edgeStyle=none;rounded=0;orthogonalLoop=1;jettySize=auto;html=1;" parent="1" target="JCrbDouMTUXb1XQhW-dl-21" edge="1">
          <mxGeometry relative="1" as="geometry">
            <mxPoint x="729.9999999999998" y="516" as="sourcePoint" />
          </mxGeometry>
        </mxCell>
        <mxCell id="JCrbDouMTUXb1XQhW-dl-56" style="edgeStyle=none;rounded=0;orthogonalLoop=1;jettySize=auto;html=1;exitX=0.005;exitY=0.63;exitDx=0;exitDy=0;exitPerimeter=0;entryX=1.008;entryY=0.415;entryDx=0;entryDy=0;entryPerimeter=0;" parent="1" source="JCrbDouMTUXb1XQhW-dl-24" target="JCrbDouMTUXb1XQhW-dl-36" edge="1">
          <mxGeometry relative="1" as="geometry" />
        </mxCell>
        <mxCell id="JCrbDouMTUXb1XQhW-dl-24" value="&lt;br&gt;&lt;br&gt;&lt;br&gt;&lt;br&gt;owner_db_2" style="html=1;dashed=0;whitespace=wrap;fillColor=#67AB9F;strokeColor=#ffffff;points=[[0.005,0.63,0],[0.1,0.2,0],[0.9,0.2,0],[0.5,0,0],[0.995,0.63,0],[0.72,0.99,0],[0.5,1,0],[0.28,0.99,0]];shape=mxgraph.kubernetes.icon;prIcon=c_role" parent="1" vertex="1">
          <mxGeometry x="705" y="446" width="50" height="48" as="geometry" />
        </mxCell>
        <mxCell id="JCrbDouMTUXb1XQhW-dl-31" value="&lt;br&gt;&lt;br&gt;&lt;br&gt;&lt;br&gt;reader_db_1" style="html=1;dashed=0;whitespace=wrap;fillColor=#67AB9F;strokeColor=#ffffff;points=[[0.005,0.63,0],[0.1,0.2,0],[0.9,0.2,0],[0.5,0,0],[0.995,0.63,0],[0.72,0.99,0],[0.5,1,0],[0.28,0.99,0]];shape=mxgraph.kubernetes.icon;prIcon=c_role" parent="1" vertex="1">
          <mxGeometry x="310" y="488" width="50" height="48" as="geometry" />
        </mxCell>
        <mxCell id="JCrbDouMTUXb1XQhW-dl-36" value="&lt;br&gt;&lt;br&gt;&lt;br&gt;&lt;br&gt;reader_db_2" style="html=1;dashed=0;whitespace=wrap;fillColor=#67AB9F;strokeColor=#ffffff;points=[[0.005,0.63,0],[0.1,0.2,0],[0.9,0.2,0],[0.5,0,0],[0.995,0.63,0],[0.72,0.99,0],[0.5,1,0],[0.28,0.99,0]];shape=mxgraph.kubernetes.icon;prIcon=c_role" parent="1" vertex="1">
          <mxGeometry x="570" y="488" width="50" height="48" as="geometry" />
        </mxCell>
        <mxCell id="JCrbDouMTUXb1XQhW-dl-42" style="edgeStyle=none;rounded=0;orthogonalLoop=1;jettySize=auto;html=1;" parent="1" edge="1">
          <mxGeometry relative="1" as="geometry">
            <mxPoint x="430" y="400" as="sourcePoint" />
            <mxPoint x="350" y="490" as="targetPoint" />
          </mxGeometry>
        </mxCell>
        <mxCell id="JCrbDouMTUXb1XQhW-dl-57" style="edgeStyle=none;rounded=0;orthogonalLoop=1;jettySize=auto;html=1;exitX=0.995;exitY=0.63;exitDx=0;exitDy=0;exitPerimeter=0;" parent="1" source="JCrbDouMTUXb1XQhW-dl-37" target="JCrbDouMTUXb1XQhW-dl-36" edge="1">
          <mxGeometry relative="1" as="geometry" />
        </mxCell>
        <mxCell id="JCrbDouMTUXb1XQhW-dl-37" value="&lt;br&gt;&lt;br&gt;&lt;br&gt;&lt;br&gt;reader_all" style="html=1;dashed=0;whitespace=wrap;fillColor=#67AB9F;strokeColor=#ffffff;points=[[0.005,0.63,0],[0.1,0.2,0],[0.9,0.2,0],[0.5,0,0],[0.995,0.63,0],[0.72,0.99,0],[0.5,1,0],[0.28,0.99,0]];shape=mxgraph.kubernetes.icon;prIcon=c_role" parent="1" vertex="1">
          <mxGeometry x="440" y="360" width="50" height="48" as="geometry" />
        </mxCell>
        <mxCell id="JCrbDouMTUXb1XQhW-dl-44" style="edgeStyle=none;rounded=0;orthogonalLoop=1;jettySize=auto;html=1;" parent="1" target="JCrbDouMTUXb1XQhW-dl-37" edge="1">
          <mxGeometry relative="1" as="geometry">
            <mxPoint x="569.9999999999998" y="360.0000000000001" as="targetPoint" />
            <mxPoint x="560" y="320" as="sourcePoint" />
          </mxGeometry>
        </mxCell>
        <mxCell id="JCrbDouMTUXb1XQhW-dl-38" value="&lt;br&gt;&lt;br&gt;&lt;br&gt;&lt;br&gt;monitor_all" style="html=1;dashed=0;whitespace=wrap;fillColor=#67AB9F;strokeColor=#ffffff;points=[[0.005,0.63,0],[0.1,0.2,0],[0.9,0.2,0],[0.5,0,0],[0.995,0.63,0],[0.72,0.99,0],[0.5,1,0],[0.28,0.99,0]];shape=mxgraph.kubernetes.icon;prIcon=c_role" parent="1" vertex="1">
          <mxGeometry x="570" y="260" width="50" height="48" as="geometry" />
        </mxCell>
        <mxCell id="JCrbDouMTUXb1XQhW-dl-49" value="use role accountadmin;&#xa;create role reader_all;&#xa;create role monitor_all;&#xa;grant monitor execution, monitor usage on account to role monitor_all;&#xa;grant role reader_all to role monitor_all;&#xa;grant role monitor_all to role sysadmin;" style="text;whiteSpace=wrap;html=1;shadow=1;fillColor=#CCCCCC;" parent="1" vertex="1">
          <mxGeometry x="640" y="234" width="400" height="100" as="geometry" />
        </mxCell>
        <mxCell id="JCrbDouMTUXb1XQhW-dl-52" value="create role owner_db_1;&lt;br&gt;grant execute task on account to role owner_db_1;&lt;br&gt;grant role owner_db_1 to role sysadmin;&lt;br&gt;&lt;br&gt;&lt;div&gt;create database db_1;&lt;/div&gt;&lt;div&gt;grant&amp;nbsp;&lt;b&gt;ownership&amp;nbsp;&lt;/b&gt;on database db_1 to role owner_db_1;&lt;/div&gt;" style="text;whiteSpace=wrap;html=1;fillColor=#CCCCCC;shadow=1;" parent="1" vertex="1">
          <mxGeometry x="-170" y="440" width="310" height="120" as="geometry" />
        </mxCell>
        <mxCell id="JCrbDouMTUXb1XQhW-dl-53" value="create role reader_db_1;&lt;br&gt;grant usage, monitor on warehouse compute_wh to role reader_db_1;&lt;br&gt;grant role reader_db_1 to role owner_db_1;&lt;br&gt;grant role reader_db_1 to role reader_all;&lt;br&gt;&lt;br&gt;&lt;div&gt;grant monitor, usage on &lt;b&gt;database &lt;/b&gt;db_1 to role reader_db_1;&lt;/div&gt;&lt;div&gt;grant monitor on future &lt;b&gt;tasks &lt;/b&gt;in database db_1 to role reader_db_1;&lt;/div&gt;&lt;div&gt;grant usage on future &lt;b&gt;schemas &lt;/b&gt;in database db_1 to role reader_db_1;&lt;/div&gt;&lt;div&gt;grant USAGE on future &lt;b&gt;functions &lt;/b&gt;in database db_1 to role reader_db_1;&lt;/div&gt;&lt;div&gt;grant USAGE on future &lt;b&gt;procedures&lt;/b&gt; in database db_1 to role reader_db_1;&lt;/div&gt;&lt;div&gt;grant select on future &lt;b&gt;tables &lt;/b&gt;in database db_1 to role reader_db_1;&lt;/div&gt;&lt;div&gt;grant monitor on future &lt;b&gt;tasks &lt;/b&gt;in database db_1 to role reader_db_1;&lt;/div&gt;&lt;div&gt;grant select on future &lt;b&gt;views &lt;/b&gt;in database db_1 to role reader_db_1;&lt;/div&gt;&lt;div&gt;grant usage, read on future &lt;b&gt;stages &lt;/b&gt;in database db_1 to role reader_db_1;&lt;/div&gt;&lt;div&gt;grant usage on future &lt;b&gt;file formats &lt;/b&gt;in database db_1 to role reader_db_1;&lt;/div&gt;&lt;div&gt;grant select on future &lt;b&gt;streams &lt;/b&gt;in database db_1 to role reader_db_1;&lt;/div&gt;" style="text;whiteSpace=wrap;html=1;shadow=1;fillColor=#CCCCCC;" parent="1" vertex="1">
          <mxGeometry x="240" y="585" width="430" height="255" as="geometry" />
        </mxCell>
        <mxCell id="JCrbDouMTUXb1XQhW-dl-59" value="&lt;div&gt;--Temp schema for reader role so they can create temp tables&lt;/div&gt;&lt;div&gt;use role owner_db_1;&lt;/div&gt;&lt;div&gt;create schema db_1._temp;&lt;/div&gt;&lt;div&gt;grant create table on schema db_1._temp to role reader_db_1;&lt;/div&gt;" style="text;whiteSpace=wrap;html=1;shadow=1;fillColor=#CCCCCC;" parent="1" vertex="1">
          <mxGeometry x="240" y="870" width="430" height="80" as="geometry" />
        </mxCell>
        <mxCell id="JCrbDouMTUXb1XQhW-dl-64" value="Only owner role should/can create objects in db&lt;br&gt;to simplify access control&lt;br&gt;&lt;br&gt;" style="verticalLabelPosition=bottom;html=1;verticalAlign=top;align=center;strokeColor=none;fillColor=#00BEF2;shape=mxgraph.azure.notification_topic;shadow=1;" parent="1" vertex="1">
          <mxGeometry x="30" y="650" width="50" height="50" as="geometry" />
        </mxCell>
        <UserObject label="Link to the article" linkTarget="_blank" link="https://trevorscode.com/snowflake-permissions-problems-3-database-owner-cant-view-all-objects-in-the-database/" id="JCrbDouMTUXb1XQhW-dl-68">
          <mxCell style="fontColor=#0000EE;fontStyle=4;rounded=1;overflow=hidden;spacing=10;shadow=1;fillColor=#FFFFFF;" parent="1" vertex="1">
            <mxGeometry x="-20" y="750" width="180" height="40" as="geometry" />
          </mxCell>
        </UserObject>
        <mxCell id="8eGBzTzo1Z5EBrO93iN6-1" value="--clean up&#xa;drop schema db_1._temp;&#xa;drop role reader_db_1;&#xa;drop role owner_db_1;&#xa;drop role reader_all;&#xa;drop role monitor_all;" style="text;whiteSpace=wrap;html=1;" parent="1" vertex="1">
          <mxGeometry x="15" y="1010" width="160" height="100" as="geometry" />
        </mxCell>
        <mxCell id="8eGBzTzo1Z5EBrO93iN6-2" value="Snowflake Access Control Considerations&amp;nbsp;&lt;a href=&quot;https://docs.snowflake.com/en/user-guide/security-access-control-considerations.html&quot;&gt;Official Doc&lt;/a&gt;&lt;br&gt;Reference Material -&amp;nbsp; &lt;a href=&quot;https://trevorscode.com/toward-a-standard-model-for-snowflake-roles-and-privileges/&quot;&gt;Trevor&#39;s Code&lt;/a&gt;&amp;nbsp;&lt;br&gt;1. Create database owner role to have full access to database&lt;br&gt;2. Create database reader role to have read access only&lt;br&gt;3. Assign basic roles to higher level roles:&lt;br&gt;&lt;span style=&quot;white-space: pre&quot;&gt;	&lt;/span&gt;a. Simplify scripts&lt;br&gt;&lt;span style=&quot;white-space: pre&quot;&gt;	&lt;/span&gt;b. Ensures higher level roles have access to lower level objects" style="text;whiteSpace=wrap;html=1;shadow=1;fillColor=#CCCCCC;" parent="1" vertex="1">
          <mxGeometry x="500" y="34" width="400" height="126" as="geometry" />
        </mxCell>
      </root>
    </mxGraphModel>
  </diagram>
</mxfile>
